<?xml version="1.0" encoding="utf-8"?>
<!-- Generator: Adobe Illustrator 26.0.2, SVG Export Plug-In . SVG Version: 6.00 Build 0)  -->
<svg version="1.1" id="Capa_1" xmlns="http://www.w3.org/2000/svg" xmlns:xlink="http://www.w3.org/1999/xlink" x="0px" y="0px"
	 viewBox="0 0 512 512" style="enable-background:new 0 0 512 512;" xml:space="preserve">
<style type="text/css">
	.st0{opacity:0.1;enable-background:new    ;}
	.st1{fill:#2E3440;}
	.st2{fill:#A7C9E6;}
	.st3{fill:#5E81AC;}
	.st4{fill:#EBCB8B;}
</style>
<g>
	<path id="SVGCleanerId_0_00000070814382035841379830000001188743402870970557_" class="st0" d="M410.6,291.5
		c3,8.7,4.9,17.8,4.9,27.5c0,47.1-38.3,85.3-85.3,85.3H52.8c-11.1,0-21.5-3.1-30.6-8.1c6.1,29,31.8,50.8,62.6,50.8h277.3
		c47.1,0,85.3-38.3,85.3-85.3C447.5,332.6,432.8,306.9,410.6,291.5z"/>
	<path class="st1" d="M500.8,191h-32.5c-2.2-24.4-11.9-46.6-26.7-64.4l23-23c4.2-4.2,4.2-10.9,0-15.1c-4.2-4.2-10.9-4.2-15.1,0
		l-23,23c-17.8-14.8-40-24.5-64.4-26.7V52.3c0-5.9-4.8-10.7-10.7-10.7s-10.7,4.8-10.7,10.7v33c-24.1,2.3-46.2,11.6-64,26.6
		l-23.4-23.4c-4.2-4.2-10.9-4.2-15.1,0c-4.2,4.2-4.2,10.9,0,15.1l23.4,23.4c-11.2,13.6-19.2,29.8-23.4,47.6
		c-11.7-3-23.8-4.9-36.2-4.9c-76.9,0-140.5,58.3-148.2,134C22.2,316.1-0.5,346.9-0.5,383c0,47.1,38.3,85.3,85.3,85.3h277.3
		c58.8,0,106.7-47.9,106.7-106.7c0-30.8-13.3-58.3-34.2-77.8c19.3-19.4,31.1-44.6,33.6-71.5h32.6c5.9,0,10.7-4.8,10.7-10.7
		C511.5,195.8,506.7,191,500.8,191z"/>
	<path class="st2" d="M447.5,361.7c0,47.1-38.3,85.3-85.3,85.3H84.8c-35.3,0-64-28.7-64-64s28.7-64,64-64c5.9,0,10.7-4.8,10.7-10.7
		c0-5.9-4.8-10.7-10.7-10.7c-3,0-5.9,0.6-8.8,0.9C85.8,237.3,138.8,191,202.2,191c49.6,0,94.5,29.4,115.4,73.8
		c-5.1,2.4-10.2,5.1-14.9,8.3c-4.9,3.3-6.2,9.9-2.9,14.8c3.3,4.9,9.9,6.1,14.8,2.9c14.1-9.5,30.6-14.5,47.6-14.5
		C409.2,276.3,447.5,314.6,447.5,361.7z"/>
	<g>
		<path id="SVGCleanerId_0_00000049197551817751388420000016952993172785641103_" class="st3" d="M410.6,291.5
			c3,8.7,4.9,17.8,4.9,27.5c0,47.1-38.3,85.3-85.3,85.3H52.8c-11.1,0-21.5-3.1-30.6-8.1c6.1,29,31.8,50.8,62.6,50.8h277.3
			c47.1,0,85.3-38.3,85.3-85.3C447.5,332.6,432.8,306.9,410.6,291.5z"/>
	</g>
	<path class="st4" d="M417.2,270.8c-16.1-9.8-34.9-15.8-55.1-15.8c-8.3,0-16.4,1.2-24.3,3.1c-15.9-35.2-44.5-62.4-79.3-76.7
		c9.5-43.6,47.9-75.7,92.9-75.7c52.9,0,96,43.1,96,96C447.5,227.8,436.5,252.6,417.2,270.8z"/>
</g>
</svg>
